<svg xmlns="http://www.w3.org/2000/svg" xmlns:xlink="http://www.w3.org/1999/xlink" width="2880" zoomAndPan="magnify" viewBox="0 0 2160 1079.999946" height="1440" preserveAspectRatio="xMidYMid meet" version="1.0"><defs><g/><clipPath id="90704d530d"><path d="M 25.65625 259 L 648.90625 259 L 648.90625 796 L 25.65625 796 Z M 25.65625 259 " clip-rule="nonzero"/></clipPath></defs><path stroke-linecap="round" transform="matrix(0.750144, 0, 0, 0.75, 1583.948117, 710.670611)" fill="none" stroke-linejoin="miter" d="M 8.999746 9.001686 L 724.862664 9.001686 " stroke="#000000" stroke-width="18" stroke-opacity="1" stroke-miterlimit="4"/><g clip-path="url(#90704d530d)"><path fill="#000000" d="M 337.28125 259.691406 L 25.65625 540.269531 L 110.644531 540.269531 L 110.644531 540.378906 L 337.28125 335.964844 L 507.257812 488.957031 L 507.257812 738.648438 L 393.941406 738.648438 L 393.941406 653.628906 L 468.472656 653.628906 L 266.457031 474.011719 L 64.441406 653.628906 L 138.972656 653.628906 L 138.972656 795.328125 L 563.917969 795.328125 L 563.917969 540.269531 L 648.90625 540.269531 Z M 337.28125 259.691406 " fill-opacity="1" fill-rule="nonzero"/></g><g fill="#ff914d" fill-opacity="1"><g transform="translate(610.508374, 555.006308)"><g><path d="M 103.101562 3.351562 L 117.988281 3.351562 L 168.984375 -142.554688 L 226.300781 3.351562 L 241.191406 3.351562 L 329.402344 -245.65625 L 311.539062 -245.65625 L 247.890625 -66.625 L 194.664062 -202.109375 C 177.542969 -244.914062 147.023438 -249.378906 120.96875 -249.378906 C 117.617188 -249.378906 108.3125 -248.636719 106.453125 -248.636719 L 106.453125 -241.191406 C 121.339844 -239.328125 134.367188 -230.398438 145.90625 -202.109375 L 158.933594 -168.984375 L 125.433594 -73.695312 L 75.1875 -202.109375 C 58.066406 -245.285156 27.542969 -249.378906 1.488281 -249.378906 C -1.859375 -249.378906 -12.28125 -248.636719 -14.144531 -248.636719 L -14.144531 -241.191406 C 0.746094 -239.328125 11.167969 -230.398438 22.703125 -202.109375 Z M 103.101562 3.351562 "/></g></g></g><g fill="#ff914d" fill-opacity="1"><g transform="translate(947.728426, 555.006308)"><g><path d="M 99.378906 3.722656 C 139.949219 3.722656 158.933594 -18.609375 169.726562 -35.359375 L 158.1875 -43.921875 C 145.160156 -26.425781 130.644531 -13.027344 104.960938 -13.027344 C 80.769531 -13.027344 64.019531 -31.636719 64.019531 -80.769531 L 176.054688 -80.769531 L 177.542969 -104.21875 C 177.542969 -148.882812 141.8125 -178.660156 95.65625 -178.660156 C 49.503906 -178.660156 13.773438 -147.023438 13.773438 -87.46875 C 13.773438 -35.359375 46.898438 3.722656 99.378906 3.722656 Z M 64.019531 -97.519531 C 64.019531 -146.648438 78.90625 -161.910156 95.65625 -161.910156 C 114.269531 -161.910156 127.296875 -146.648438 127.296875 -97.519531 Z M 64.019531 -97.519531 "/></g></g></g><g fill="#ff914d" fill-opacity="1"><g transform="translate(1137.182062, 555.006308)"><g><path d="M 111.664062 3.722656 C 163.773438 3.722656 189.828125 -36.476562 189.828125 -87.46875 C 189.828125 -138.460938 163.773438 -178.660156 109.800781 -178.660156 C 92.679688 -178.660156 79.652344 -173.078125 70.71875 -167.492188 L 70.71875 -197.269531 C 70.71875 -234.117188 63.277344 -245.65625 37.222656 -245.65625 L -7.445312 -245.65625 L -7.445312 -234.492188 L -3.722656 -234.492188 C 18.609375 -234.492188 22.332031 -219.601562 22.332031 -197.269531 L 22.332031 0 L 53.96875 0 L 66.996094 -16.75 L 68.859375 -16.75 C 75.1875 -6.699219 89.703125 3.722656 111.664062 3.722656 Z M 104.21875 -13.027344 C 88.214844 -13.027344 76.300781 -24.9375 70.71875 -37.222656 L 70.71875 -150.746094 C 77.046875 -155.210938 87.839844 -161.910156 102.355469 -161.910156 C 130.273438 -161.910156 139.578125 -130.273438 139.578125 -87.46875 C 139.578125 -44.664062 129.902344 -13.027344 104.21875 -13.027344 Z M 104.21875 -13.027344 "/></g></g></g><g fill="#000000" fill-opacity="1"><g transform="translate(1340.779975, 555.006308)"><g><path d="M 29.777344 0 L 78.164062 0 L 78.164062 -150.746094 C 84.863281 -155.957031 95.65625 -160.050781 109.800781 -160.050781 C 130.273438 -160.050781 145.160156 -146.648438 145.160156 -110.546875 L 145.160156 0 L 193.546875 0 L 193.546875 -110.171875 C 193.546875 -158.1875 169.355469 -178.660156 122.828125 -178.660156 C 92.308594 -178.660156 77.417969 -169.355469 68.484375 -161.167969 C 62.902344 -171.214844 53.96875 -174.9375 37.222656 -174.9375 L 0.371094 -174.9375 L 0.371094 -163.773438 L 4.09375 -163.773438 C 26.425781 -163.773438 29.777344 -148.882812 29.777344 -126.550781 Z M 29.777344 0 "/></g></g></g><g fill="#000000" fill-opacity="1"><g transform="translate(1554.799359, 555.006308)"><g><path d="M 99.378906 3.722656 C 139.949219 3.722656 158.933594 -18.609375 169.726562 -35.359375 L 158.1875 -43.921875 C 145.160156 -26.425781 130.644531 -13.027344 104.960938 -13.027344 C 80.769531 -13.027344 64.019531 -31.636719 64.019531 -80.769531 L 176.054688 -80.769531 L 177.542969 -104.21875 C 177.542969 -148.882812 141.8125 -178.660156 95.65625 -178.660156 C 49.503906 -178.660156 13.773438 -147.023438 13.773438 -87.46875 C 13.773438 -35.359375 46.898438 3.722656 99.378906 3.722656 Z M 64.019531 -97.519531 C 64.019531 -146.648438 78.90625 -161.910156 95.65625 -161.910156 C 114.269531 -161.910156 127.296875 -146.648438 127.296875 -97.519531 Z M 64.019531 -97.519531 "/></g></g></g><g fill="#000000" fill-opacity="1"><g transform="translate(1744.252995, 555.006308)"><g><path d="M 102.730469 3.722656 C 145.535156 3.722656 164.144531 -18.609375 174.9375 -35.359375 L 163.398438 -43.921875 C 150.371094 -26.425781 135.855469 -13.027344 110.171875 -13.027344 C 79.28125 -13.027344 63.648438 -37.964844 63.648438 -87.46875 C 63.648438 -138.089844 81.886719 -161.910156 108.3125 -161.910156 C 138.089844 -161.910156 156.699219 -145.160156 158.5625 -113.523438 L 169.726562 -113.523438 C 169.726562 -141.8125 169.726562 -156.328125 160.421875 -165.632812 C 151.117188 -174.9375 131.015625 -178.660156 102.730469 -178.660156 C 43.175781 -178.660156 13.398438 -136.972656 13.398438 -87.46875 C 13.398438 -37.964844 43.175781 3.722656 102.730469 3.722656 Z M 102.730469 3.722656 "/></g></g></g><g fill="#000000" fill-opacity="1"><g transform="translate(1928.867936, 555.006308)"><g><path d="M 102.730469 3.722656 C 158.1875 3.722656 192.058594 -36.476562 192.058594 -87.46875 C 192.058594 -138.460938 158.1875 -178.660156 102.730469 -178.660156 C 47.269531 -178.660156 13.398438 -138.460938 13.398438 -87.46875 C 13.398438 -36.476562 47.269531 3.722656 102.730469 3.722656 Z M 102.730469 -13.027344 C 76.675781 -13.027344 63.648438 -44.664062 63.648438 -87.46875 C 63.648438 -130.273438 76.675781 -161.910156 102.730469 -161.910156 C 128.785156 -161.910156 141.8125 -130.273438 141.8125 -87.46875 C 141.8125 -44.664062 128.785156 -13.027344 102.730469 -13.027344 Z M 102.730469 -13.027344 "/></g></g></g><g fill="#000000" fill-opacity="1"><g transform="translate(610.508374, 757.595143)"><g><path d="M 103.78125 1.855469 C 108.605469 1.855469 114.546875 0.929688 116.589844 0 L 116.589844 -4.640625 C 111.207031 -5.570312 103.039062 -9.28125 93.570312 -25.0625 L 74.074219 -57.550781 C 89.300781 -61.453125 104.152344 -69.0625 104.152344 -88.929688 C 104.152344 -118.816406 70.917969 -122.53125 54.023438 -122.53125 L 2.785156 -122.53125 L 2.785156 -116.960938 L 4.640625 -116.960938 C 15.78125 -116.960938 17.636719 -109.535156 17.636719 -98.394531 L 17.636719 0 L 41.957031 0 L 41.957031 -56.066406 L 49.382812 -56.066406 L 67.949219 -25.0625 C 80.015625 -5.011719 90.785156 1.855469 103.78125 1.855469 Z M 41.957031 -63.492188 L 41.957031 -113.804688 C 47.710938 -114.917969 51.425781 -115.105469 53.46875 -115.105469 C 65.164062 -115.105469 78.160156 -108.605469 78.160156 -89.300781 C 78.160156 -69.804688 64.980469 -63.492188 53.097656 -63.492188 Z M 41.957031 -63.492188 "/></g></g></g><g fill="#000000" fill-opacity="1"><g transform="translate(724.87051, 757.595143)"><g><path d="M 49.570312 1.855469 C 69.804688 1.855469 79.273438 -9.28125 84.65625 -17.636719 L 78.902344 -21.90625 C 72.40625 -13.179688 65.164062 -6.496094 52.355469 -6.496094 C 40.285156 -6.496094 31.933594 -15.78125 31.933594 -40.285156 L 87.8125 -40.285156 L 88.554688 -51.984375 C 88.554688 -74.261719 70.734375 -89.113281 47.710938 -89.113281 C 24.691406 -89.113281 6.871094 -73.332031 6.871094 -43.628906 C 6.871094 -17.636719 23.390625 1.855469 49.570312 1.855469 Z M 31.933594 -48.640625 C 31.933594 -73.148438 39.359375 -80.757812 47.710938 -80.757812 C 56.996094 -80.757812 63.492188 -73.148438 63.492188 -48.640625 Z M 31.933594 -48.640625 "/></g></g></g><g fill="#000000" fill-opacity="1"><g transform="translate(819.367778, 757.595143)"><g><path d="M 36.945312 1.855469 C 48.085938 1.855469 55.882812 -3.15625 59.222656 -8.355469 L 60.152344 -8.355469 L 66.648438 0 L 82.429688 0 L 82.429688 -50.125 C 82.429688 -76.304688 68.691406 -89.113281 44.371094 -89.113281 C 32.304688 -89.113281 20.980469 -87.628906 16.523438 -82.617188 C 12.066406 -77.601562 11.882812 -70.546875 11.882812 -64.050781 L 22.09375 -64.050781 C 25.0625 -77.972656 32.304688 -80.757812 40.65625 -80.757812 C 51.796875 -80.757812 58.296875 -73.332031 58.296875 -51.054688 L 55.511719 -51.054688 C 15.59375 -51.054688 5.382812 -40.84375 5.382812 -23.207031 C 5.382812 -8.355469 16.335938 1.855469 36.945312 1.855469 Z M 42.515625 -7.425781 C 35.089844 -7.425781 30.445312 -12.808594 30.445312 -23.207031 C 30.445312 -36.386719 37.6875 -42.699219 55.511719 -42.699219 L 58.296875 -42.699219 L 58.296875 -19.492188 C 56.253906 -14.296875 50.683594 -7.425781 42.515625 -7.425781 Z M 42.515625 -7.425781 "/></g></g></g><g fill="#000000" fill-opacity="1"><g transform="translate(911.451562, 757.595143)"><g><path d="M 11.882812 0 L 36.015625 0 L 36.015625 -98.394531 C 36.015625 -116.777344 32.304688 -122.53125 19.308594 -122.53125 L -2.96875 -122.53125 L -2.96875 -116.960938 L -1.113281 -116.960938 C 10.023438 -116.960938 11.882812 -109.535156 11.882812 -98.394531 Z M 11.882812 0 "/></g></g></g><g fill="#000000" fill-opacity="1"><g transform="translate(959.35001, 757.595143)"><g/></g></g><g fill="#000000" fill-opacity="1"><g transform="translate(1005.763192, 757.595143)"><g><path d="M 17.636719 0 L 86.328125 0 C 96.539062 0 99.695312 -5.011719 102.480469 -12.996094 L 107.863281 -27.664062 L 102.851562 -29.519531 C 96.355469 -13.367188 87.070312 -8.355469 73.519531 -8.355469 L 41.773438 -8.355469 L 41.773438 -59.410156 L 90.042969 -59.410156 L 90.042969 -67.761719 L 41.773438 -67.761719 L 41.773438 -114.175781 L 71.660156 -114.175781 C 86.515625 -114.175781 94.867188 -107.679688 94.867188 -91.898438 L 100.4375 -91.898438 L 100.4375 -107.679688 C 100.4375 -115.105469 97.46875 -122.53125 84.65625 -122.53125 L 2.785156 -122.53125 L 2.785156 -116.960938 L 4.640625 -116.960938 C 15.78125 -116.960938 17.636719 -109.535156 17.636719 -98.394531 Z M 17.636719 0 "/></g></g></g><g fill="#000000" fill-opacity="1"><g transform="translate(1117.154848, 757.595143)"><g><path d="M 42.515625 1.855469 C 64.605469 1.855469 80.574219 -6.683594 80.574219 -22.835938 C 80.574219 -36.015625 71.847656 -42.515625 54.769531 -49.753906 L 43.628906 -54.394531 C 35.460938 -57.921875 30.445312 -61.453125 30.445312 -68.132812 C 30.445312 -75.375 35.089844 -80.757812 46.226562 -80.757812 C 61.078125 -80.757812 68.320312 -71.289062 70.363281 -59.410156 L 76.859375 -59.410156 C 76.859375 -68.878906 76.859375 -77.230469 72.40625 -81.5 C 67.390625 -86.144531 57.921875 -89.113281 42.515625 -89.113281 C 22.09375 -89.113281 7.242188 -80.574219 7.242188 -64.421875 C 7.242188 -52.355469 16.152344 -44.742188 31.003906 -38.246094 L 40.65625 -34.160156 C 50.125 -29.890625 57.367188 -26.363281 57.367188 -19.121094 C 57.367188 -11.882812 52.726562 -6.496094 38.800781 -6.496094 C 23.949219 -6.496094 16.707031 -15.964844 14.667969 -27.847656 L 8.167969 -27.847656 C 8.167969 -18.378906 8.167969 -10.023438 12.625 -5.753906 C 17.636719 -1.113281 27.105469 1.855469 42.515625 1.855469 Z M 42.515625 1.855469 "/></g></g></g><g fill="#000000" fill-opacity="1"><g transform="translate(1204.040359, 757.595143)"><g><path d="M 41.957031 1.855469 C 53.28125 1.855469 61.078125 -1.855469 66.09375 -6.3125 L 63.492188 -11.511719 C 60.335938 -9.28125 55.324219 -6.496094 48.828125 -6.496094 C 42.699219 -6.496094 39.171875 -10.210938 39.171875 -24.136719 L 39.171875 -78.902344 L 59.59375 -78.902344 L 59.59375 -87.257812 L 39.171875 -87.257812 L 39.171875 -115.105469 L 24.320312 -115.105469 L 15.039062 -103.964844 L 15.039062 -87.257812 L 3.898438 -87.257812 L 3.898438 -78.902344 L 15.039062 -78.902344 L 15.039062 -25.25 C 15.039062 -7.425781 25.0625 1.855469 41.957031 1.855469 Z M 41.957031 1.855469 "/></g></g></g><g fill="#000000" fill-opacity="1"><g transform="translate(1269.761431, 757.595143)"><g><path d="M 36.945312 1.855469 C 48.085938 1.855469 55.882812 -3.15625 59.222656 -8.355469 L 60.152344 -8.355469 L 66.648438 0 L 82.429688 0 L 82.429688 -50.125 C 82.429688 -76.304688 68.691406 -89.113281 44.371094 -89.113281 C 32.304688 -89.113281 20.980469 -87.628906 16.523438 -82.617188 C 12.066406 -77.601562 11.882812 -70.546875 11.882812 -64.050781 L 22.09375 -64.050781 C 25.0625 -77.972656 32.304688 -80.757812 40.65625 -80.757812 C 51.796875 -80.757812 58.296875 -73.332031 58.296875 -51.054688 L 55.511719 -51.054688 C 15.59375 -51.054688 5.382812 -40.84375 5.382812 -23.207031 C 5.382812 -8.355469 16.335938 1.855469 36.945312 1.855469 Z M 42.515625 -7.425781 C 35.089844 -7.425781 30.445312 -12.808594 30.445312 -23.207031 C 30.445312 -36.386719 37.6875 -42.699219 55.511719 -42.699219 L 58.296875 -42.699219 L 58.296875 -19.492188 C 56.253906 -14.296875 50.683594 -7.425781 42.515625 -7.425781 Z M 42.515625 -7.425781 "/></g></g></g><g fill="#000000" fill-opacity="1"><g transform="translate(1361.845233, 757.595143)"><g><path d="M 41.957031 1.855469 C 53.28125 1.855469 61.078125 -1.855469 66.09375 -6.3125 L 63.492188 -11.511719 C 60.335938 -9.28125 55.324219 -6.496094 48.828125 -6.496094 C 42.699219 -6.496094 39.171875 -10.210938 39.171875 -24.136719 L 39.171875 -78.902344 L 59.59375 -78.902344 L 59.59375 -87.257812 L 39.171875 -87.257812 L 39.171875 -115.105469 L 24.320312 -115.105469 L 15.039062 -103.964844 L 15.039062 -87.257812 L 3.898438 -87.257812 L 3.898438 -78.902344 L 15.039062 -78.902344 L 15.039062 -25.25 C 15.039062 -7.425781 25.0625 1.855469 41.957031 1.855469 Z M 41.957031 1.855469 "/></g></g></g><g fill="#000000" fill-opacity="1"><g transform="translate(1427.566305, 757.595143)"><g><path d="M 49.570312 1.855469 C 69.804688 1.855469 79.273438 -9.28125 84.65625 -17.636719 L 78.902344 -21.90625 C 72.40625 -13.179688 65.164062 -6.496094 52.355469 -6.496094 C 40.285156 -6.496094 31.933594 -15.78125 31.933594 -40.285156 L 87.8125 -40.285156 L 88.554688 -51.984375 C 88.554688 -74.261719 70.734375 -89.113281 47.710938 -89.113281 C 24.691406 -89.113281 6.871094 -73.332031 6.871094 -43.628906 C 6.871094 -17.636719 23.390625 1.855469 49.570312 1.855469 Z M 31.933594 -48.640625 C 31.933594 -73.148438 39.359375 -80.757812 47.710938 -80.757812 C 56.996094 -80.757812 63.492188 -73.148438 63.492188 -48.640625 Z M 31.933594 -48.640625 "/></g></g></g></svg>